# Blender 5.1.2
# www.blender.org
mtllib upper_arm.mtl
o armLow
v 90.376213 108.636978 -134.212830
v 86.516823 107.241760 -113.194901
v 88.974197 106.938416 -93.464516
v 95.651344 106.682808 -79.622238
v 85.519569 99.168045 -89.577919
v 92.406403 99.330536 -76.817337
v 92.886101 99.273384 -136.059311
v 85.011589 97.358490 -113.671890
v 103.077522 75.469429 -138.329468
v 97.986465 86.331436 -138.261047
v 108.913300 105.826538 -70.691055
v 109.168686 98.900620 -69.276260
v 125.988792 101.235199 -69.959152
v 122.908684 105.562225 -68.018944
v 52.864925 44.202782 -60.710461
v 57.392967 48.825157 -52.074200
v 89.481377 12.358345 -85.700447
v 86.140488 13.429405 -89.846069
v 88.756813 26.706608 -106.433914
v 80.517250 15.312927 -93.698837
v 73.157417 17.312092 -94.505005
v 78.972176 32.123611 -108.091843
v 100.665527 23.275215 -90.996529
v 91.223541 11.408569 -81.382126
v 98.564774 23.941231 -96.119240
v 127.969505 58.280678 -89.474739
v 125.577850 55.280544 -96.693947
v 64.620071 33.163639 -97.915672
v 64.889435 42.713970 -100.703964
v 70.572227 46.640991 -108.057205
v 106.225700 33.849682 -105.114273
v 94.949066 24.638344 -101.239014
v 102.970276 34.500187 -110.833054
v 96.848343 36.907391 -117.504150
v 87.620667 43.014317 -121.298439
v 118.658096 69.846909 -61.622192
v 122.684921 61.148071 -65.897995
v 127.100502 66.701729 -73.193939
v 124.957970 74.784676 -69.451424
v 113.670113 35.047497 -85.747467
v 102.655418 23.230228 -77.515182
v 102.166664 22.056644 -84.830338
v 111.776932 33.352825 -93.050934
v 108.542603 33.735764 -99.439354
v 72.551201 77.176674 -74.395676
v 64.958664 62.970150 -67.204178
v 68.533310 63.801453 -60.927738
v 76.522400 77.623596 -69.007629
v 87.797592 16.227139 -47.191940
v 90.684639 12.247902 -54.291992
v 104.439072 27.816490 -58.070415
v 100.751030 33.852585 -50.582283
v 72.772934 62.865726 -55.515007
v 82.166893 76.926758 -64.043419
v 76.884399 55.257442 -118.646942
v 81.323303 65.235153 -124.350937
v 90.698296 61.808537 -130.154861
v 57.923603 41.320152 -85.402779
v 62.144794 50.500340 -90.972260
v 117.302559 43.972439 -65.335327
v 116.129662 38.193024 -76.227234
v 122.744667 47.198502 -81.721756
v 124.004654 53.455399 -72.470787
v 52.562351 33.684650 -78.892609
v 51.275009 39.764793 -68.620697
v 56.607121 47.433411 -76.177689
v 58.706699 53.477341 -69.556999
v 62.017017 50.449791 -47.065571
v 67.649506 49.458885 -43.065449
v 101.930771 85.160011 -64.501877
v 111.729797 77.968048 -61.547771
v 120.760994 84.216263 -67.662750
v 115.007156 93.060928 -67.214951
v 61.696194 21.767010 -91.210136
v 92.267632 11.377441 -70.203545
v 92.214661 10.617874 -76.124969
v 109.178528 67.843681 -135.346954
v 113.533279 42.018227 -104.980667
v 111.074341 41.935997 -111.450256
v 107.746666 43.566460 -118.088303
v 116.910934 41.872742 -98.122513
v 94.467728 89.434601 -68.109756
v 101.475876 48.896618 -126.718430
v 127.954628 95.573639 -71.050652
v 119.964767 57.769524 -115.796295
v 115.632919 62.501270 -125.709961
v 74.356247 46.329102 -40.715485
v 79.341873 59.907757 -51.198700
v 89.974731 73.711540 -59.658455
v 129.990372 85.930992 -73.655640
v 122.814354 54.859375 -103.335007
v 121.689819 55.745033 -109.273438
v 129.324722 63.901321 -82.501869
v 130.524078 70.178818 -78.491638
v 130.668976 76.602982 -76.175125
v 125.702667 53.170738 -85.418800
v 127.109459 59.198357 -78.223770
v 123.023483 49.481407 -93.120872
v 119.904205 48.210831 -100.439758
v 117.392288 48.724594 -107.096245
v 103.990456 24.887093 -68.747353
v 119.755562 43.569679 -90.593788
v 80.250168 91.247414 -85.219604
v 86.171661 91.046272 -74.299263
v 110.939987 50.959339 -121.402359
v 104.056206 56.927010 -131.181183
v 88.692368 83.129021 -129.144897
v 82.560188 82.353661 -122.952499
v 79.236229 91.923386 -106.794060
v 95.852554 67.866241 -134.418716
v 115.012444 48.906815 -113.490318
v 88.089844 53.544853 -47.303123
v 95.198151 43.061138 -46.821922
v 109.425873 60.132927 -54.083706
v 101.077049 67.914345 -54.761871
v 80.894646 38.183090 -39.783367
v 75.839294 79.515297 -115.755630
v 61.636971 55.929276 -82.225159
v 85.068909 25.264999 -42.049271
v 114.705215 51.435349 -57.846546
v 91.967972 11.507256 -62.741386
v 61.875763 58.889992 -76.380547
v 73.513229 86.041451 -101.215118
v 74.390404 85.592690 -88.924896
v 69.462486 76.315865 -81.755356
v 64.976944 65.617424 -77.309746
v 66.944038 76.188797 -93.630608
v 64.011696 64.159706 -86.756752
v 68.534821 70.483803 -107.347588
v 64.791061 58.928909 -97.024384
vn -0.7645 0.5120 0.3916
vn -0.9648 -0.0187 -0.2622
vn -0.9584 0.2799 0.0552
vn -0.0600 -0.0643 0.9961
vn -0.1746 -0.6496 -0.7400
vn 0.5608 -0.7474 -0.3562
vn -0.6063 -0.2896 -0.7406
vn 0.4901 -0.7710 -0.4066
vn -0.1990 -0.6677 -0.7173
vn 0.8100 0.0177 0.5861
vn 0.7489 -0.6626 0.0080
vn 0.6031 -0.7304 -0.3207
vn 0.2567 -0.7858 -0.5627
vn -0.7000 0.6001 0.3871
vn 0.6832 -0.4208 0.5968
vn -0.4957 0.6513 0.5746
vn -0.5408 -0.2630 -0.7989
vn -0.9108 0.0348 -0.4115
vn 0.8533 -0.4865 0.1876
vn -0.8767 0.4673 -0.1145
vn -0.8233 0.5608 0.0874
vn 0.1939 -0.7806 -0.5942
vn -0.3953 0.7257 0.5631
vn 0.1725 0.3132 0.9339
vn -0.4881 -0.4267 -0.7613
vn 0.7722 -0.6325 0.0608
vn -0.4415 0.3381 0.8311
vn 0.4227 -0.7775 -0.4657
vn 0.7170 -0.6368 -0.2836
vn 0.5890 -0.6784 -0.4390
vn 0.6781 -0.6385 -0.3640
vn -0.1065 0.3759 0.9205
vn 0.3745 -0.6692 -0.6417
vn 0.6280 -0.7314 -0.2657
vn -0.0716 0.6614 0.7466
vn -0.1915 0.5066 0.8406
vn 0.9193 -0.3719 0.1287
vn 0.8156 -0.5049 -0.2825
vn 0.7983 -0.5283 -0.2892
vn 0.7923 -0.5841 0.1763
vn 0.6140 -0.7285 -0.3038
vn -0.2009 0.6112 0.7656
vn 0.7962 -0.5932 -0.1187
vn -0.6584 0.6439 0.3897
vn -0.1380 -0.4755 -0.8688
vn 0.4999 -0.5318 -0.6836
vn -0.7602 0.4270 -0.4896
vn -0.2219 -0.4225 -0.8788
vn -0.7666 0.6420 0.0096
vn 0.6960 -0.5272 -0.4874
vn 0.2229 0.2484 0.9427
vn 0.7866 -0.5396 -0.3001
vn 0.1217 0.1651 0.9787
vn -0.8795 0.0249 -0.4753
vn -0.6776 0.6370 0.3675
vn 0.7695 -0.5269 -0.3610
vn 0.8269 -0.5134 -0.2295
vn 0.5545 -0.4948 -0.6691
vn 0.6965 -0.4970 -0.5175
vn 0.7690 -0.5430 -0.3372
vn -0.0654 -0.3619 -0.9299
vn 0.1702 0.4679 0.8673
vn -0.0208 0.4924 0.8701
vn 0.9132 -0.1939 0.3585
vn -0.4328 0.6069 0.6666
vn -0.8891 0.3252 -0.3221
vn -0.6223 0.1083 -0.7753
vn -0.6175 -0.3720 -0.6931
vn -0.9137 0.2934 -0.2812
vn 0.4033 0.1253 0.9064
vn 0.6648 0.0105 0.7470
vn 0.5405 0.2576 0.8009
vn 0.3109 0.3325 0.8904
vn 0.7632 -0.6276 0.1537
vn 0.5379 -0.1598 0.8277
vn 0.5086 -0.0534 0.8594
vn 0.8331 -0.2448 0.4960
vn 0.7321 -0.3239 0.5992
vn -0.0543 0.5253 0.8492
vn -0.3570 0.5740 0.7369
vn -0.6702 -0.0279 -0.7417
vn -0.5736 -0.1028 -0.8127
vn -0.8447 -0.0040 -0.5353
vn -0.9018 0.4125 -0.1288
vn -0.7655 0.5011 -0.4036
vn -0.6992 0.7122 0.0627
vn -0.6550 0.6809 0.3277
vn -0.8419 0.5014 0.1993
vn -0.7549 0.6044 0.2546
vn -0.8668 0.4935 0.0718
vn -0.9235 0.3631 0.1239
vn -0.9739 0.1542 -0.1666
vn -0.8755 -0.0605 -0.4794
vn -0.7929 0.0383 -0.6082
vn -0.8718 0.3938 -0.2913
vn -0.8068 0.5783 0.1211
vn -0.9415 0.3363 -0.0230
vn -0.9682 0.1845 -0.1690
vn -0.8834 0.0986 -0.4580
vn 0.7538 -0.6567 0.0242
vn 0.7420 -0.6701 0.0220
vn 0.8658 -0.4943 -0.0778
vn 0.8841 -0.4574 -0.0954
vn 0.9343 -0.3424 0.0993
vn 0.9126 -0.2764 0.3012
vn 0.8156 -0.1238 0.5652
vn 0.6490 -0.0060 0.7608
vn 0.4022 0.0183 0.9154
vn 0.8041 -0.5941 -0.0194
vt 0.192000 0.853900
vt 0.182500 0.849000
vt 0.183100 0.840200
vt 0.192600 0.842800
vt 0.197900 0.880500
vt 0.192800 0.882800
vt 0.186900 0.867400
vt 0.193600 0.868300
vt 0.200400 0.827500
vt 0.196500 0.822400
vt 0.212500 0.809600
vt 0.212200 0.816800
vt 0.139000 0.880600
vt 0.125700 0.874000
vt 0.124600 0.872400
vt 0.139300 0.877100
vt 0.133800 0.765100
vt 0.122400 0.767800
vt 0.122300 0.765100
vt 0.133500 0.762900
vt 0.128600 0.867600
vt 0.135700 0.866800
vt 0.141800 0.869500
vt 0.145800 0.758700
vt 0.132800 0.760900
vt 0.144800 0.757100
vt 0.150700 0.882700
vt 0.151100 0.880000
vt 0.171500 0.799400
vt 0.168400 0.789800
vt 0.183200 0.783100
vt 0.184900 0.793200
vt 0.148300 0.769400
vt 0.132800 0.774800
vt 0.133100 0.769300
vt 0.147600 0.765200
vt 0.146600 0.760600
vt 0.131800 0.758500
vt 0.143000 0.755200
vt 0.152800 0.844400
vt 0.139400 0.844600
vt 0.138900 0.840500
vt 0.154400 0.840700
vt 0.114200 0.797000
vt 0.116000 0.789500
vt 0.131400 0.790200
vt 0.131100 0.798300
vt 0.137400 0.834700
vt 0.156100 0.835500
vt 0.153100 0.873900
vt 0.162900 0.876700
vt 0.169400 0.882100
vt 0.127200 0.859400
vt 0.136500 0.860400
vt 0.151600 0.786700
vt 0.149600 0.776500
vt 0.163900 0.771100
vt 0.166400 0.780900
vt 0.127200 0.855100
vt 0.119800 0.853700
vt 0.120000 0.849500
vt 0.129600 0.849300
vt 0.119700 0.840500
vt 0.121600 0.762900
vt 0.120300 0.760100
vt 0.121000 0.836600
vt 0.121200 0.830100
vt 0.175100 0.824900
vt 0.174900 0.808100
vt 0.189900 0.804300
vt 0.194200 0.816200
vt 0.122500 0.867800
vt 0.121200 0.776300
vt 0.121800 0.771900
vt 0.160000 0.754500
vt 0.159100 0.752100
vt 0.157800 0.751000
vt 0.161000 0.758700
vt 0.176000 0.832000
vt 0.156100 0.748700
vt 0.123000 0.823800
vt 0.136700 0.827700
vt 0.156100 0.828600
vt 0.176700 0.764400
vt 0.179600 0.773700
vt 0.187500 0.746500
vt 0.174400 0.757000
vt 0.173100 0.750600
vt 0.183400 0.741000
vt 0.172600 0.746100
vt 0.179900 0.737200
vt 0.132500 0.779900
vt 0.161700 0.764000
vt 0.175100 0.847100
vt 0.175100 0.839600
vt 0.165200 0.886500
vt 0.167400 0.742700
vt 0.162300 0.743100
vt 0.180400 0.879200
vt 0.178100 0.874400
vt 0.179300 0.863900
vt 0.171600 0.888000
vt 0.174200 0.884300
vt 0.170700 0.743400
vt 0.136800 0.815500
vt 0.132800 0.805900
vt 0.156400 0.802600
vt 0.157400 0.812400
vt 0.210500 0.803900
vt 0.186500 0.888200
vt 0.171400 0.732400
vt 0.168800 0.736000
vt 0.176100 0.734700
vt 0.180800 0.891600
vt 0.181800 0.890700
vt 0.120500 0.815400
vt 0.120900 0.858300
vt 0.171800 0.868700
vt 0.137200 0.855900
vt 0.116300 0.805100
vt 0.153200 0.795000
vt 0.118900 0.782700
vt 0.137600 0.852300
vt 0.170000 0.859700
vt 0.167200 0.852000
vt 0.152500 0.849100
vt 0.142200 0.849700
vt 0.156000 0.856500
vt 0.143000 0.856300
vt 0.156500 0.864300
vt 0.142800 0.860700
vt 0.192600 0.754100
vt 0.196400 0.765500
vt 0.201100 0.775700
vt 0.202900 0.782900
vt 0.207600 0.793700
s 0
f 3/1/1 5/2/1 6/3/1 4/4/1
f 1/5/2 7/6/2 8/7/2 2/8/2
f 2/8/3 8/7/3 5/2/3 3/1/3
f 11/9/4 12/10/4 13/11/4 14/12/4
f 19/13/5 20/14/5 21/15/5 22/16/5
f 23/17/6 24/18/6 17/19/6 25/20/6
f 28/21/7 29/22/7 30/23/7 22/16/7
f 31/24/8 25/20/8 32/25/8 33/26/8
f 34/27/9 19/13/9 22/16/9 35/28/9
f 36/29/10 37/30/10 38/31/10 39/32/10
f 40/33/11 41/34/11 42/35/11 43/36/11
f 43/36/12 42/35/12 23/17/12 44/37/12
f 33/26/13 32/25/13 19/38/13 34/39/13
f 45/40/14 46/41/14 47/42/14 48/43/14
f 49/44/15 50/45/15 51/46/15 52/47/15
f 48/43/16 47/42/16 53/48/16 54/49/16
f 35/28/17 55/50/17 56/51/17 57/52/17
f 58/53/18 59/54/18 29/22/18 28/21/18
f 60/55/19 61/56/19 62/57/19 63/58/19
f 66/59/20 65/60/20 15/61/20 67/62/20
f 16/63/21 46/41/21 67/62/21 15/61/21
f 32/25/22 18/64/22 20/65/22 19/38/22
f 47/42/23 68/66/23 69/67/23 53/48/23
f 70/68/24 71/69/24 72/70/24 73/71/24
f 21/15/25 74/72/25 28/21/25 22/16/25
f 41/34/26 75/73/26 76/74/26 42/35/26
f 4/4/27 6/3/27 12/10/27 11/9/27
f 25/20/28 17/19/28 18/64/28 32/25/28
f 78/75/29 44/37/29 31/24/29 79/76/29
f 79/76/30 31/24/30 33/26/30 80/77/30
f 81/78/31 43/36/31 44/37/31 78/75/31
f 73/71/32 12/10/32 82/79/32 70/68/32
f 80/77/33 33/26/33 34/39/33 83/80/33
f 42/35/34 76/74/34 24/18/34 23/17/34
f 53/48/35 69/67/35 87/81/35 88/82/35
f 82/79/36 54/49/36 89/83/36 70/68/36
f 63/58/37 62/57/37 96/84/37 97/85/37
f 27/86/38 98/87/38 99/88/38 91/89/38
f 91/89/39 99/88/39 100/90/39 92/91/39
f 51/46/40 101/92/40 61/56/40 60/55/40
f 44/37/41 23/17/41 25/20/41 31/24/41
f 54/49/42 53/48/42 88/82/42 89/83/42
f 102/93/43 40/33/43 43/36/43 81/78/43
f 103/94/44 45/40/44 48/43/44 104/95/44
f 83/96/45 34/27/45 35/28/45 57/52/45
f 105/97/46 80/77/46 83/80/46 106/98/46
f 107/99/47 108/100/47 109/101/47 8/7/47
f 106/102/48 83/96/48 57/52/48 110/103/48
f 8/7/49 109/101/49 103/94/49 5/2/49
f 111/104/50 79/76/50 80/77/50 105/97/50
f 112/105/51 113/106/51 114/107/51 115/108/51
f 100/90/52 78/75/52 79/76/52 111/104/52
f 12/10/53 73/71/53 84/109/53 13/11/53
f 10/110/54 107/99/54 8/7/54 7/6/54
f 5/2/55 103/94/55 104/95/55 6/3/55
f 99/88/56 81/78/56 78/75/56 100/90/56
f 98/87/57 102/93/57 81/78/57 99/88/57
f 86/111/58 105/97/58 106/98/58 77/112/58
f 111/104/59 105/97/59 86/111/59 85/113/59
f 111/104/60 85/113/60 92/91/60 100/90/60
f 77/114/61 106/102/61 110/103/61 9/115/61
f 87/81/62 116/116/62 112/105/62 88/82/62
f 89/83/63 115/108/63 71/69/63 70/68/63
f 37/30/64 63/58/64 97/85/64 38/31/64
f 104/95/65 48/43/65 54/49/65 82/79/65
f 64/117/66 65/60/66 66/59/66 58/53/66
f 57/52/67 56/51/67 117/118/67 108/100/67
f 22/16/68 30/23/68 55/50/68 35/28/68
f 66/59/69 118/119/69 59/54/69 58/53/69
f 116/116/70 119/120/70 113/106/70 112/105/70
f 114/107/71 120/121/71 37/30/71 36/29/71
f 71/69/72 36/29/72 39/32/72 72/70/72
f 115/108/73 114/107/73 36/29/73 71/69/73
f 50/45/74 121/122/74 101/92/74 51/46/74
f 119/120/75 49/44/75 52/47/75 113/106/75
f 113/106/76 52/47/76 120/121/76 114/107/76
f 120/121/77 60/55/77 63/58/77 37/30/77
f 52/47/78 51/46/78 60/55/78 120/121/78
f 88/82/79 112/105/79 115/108/79 89/83/79
f 6/3/80 104/95/80 82/79/80 12/10/80
f 110/103/81 57/52/81 108/100/81 107/99/81
f 9/115/82 110/103/82 107/99/82 10/110/82
f 74/72/83 64/117/83 58/53/83 28/21/83
f 67/62/84 122/123/84 118/119/84 66/59/84
f 108/100/85 117/118/85 123/124/85 109/101/85
f 109/101/86 123/124/86 124/125/86 103/94/86
f 46/41/87 16/63/87 68/66/87 47/42/87
f 45/40/88 125/126/88 126/127/88 46/41/88
f 103/94/89 124/125/89 125/126/89 45/40/89
f 46/41/90 126/127/90 122/123/90 67/62/90
f 125/126/91 127/128/91 128/129/91 126/127/91
f 127/128/92 129/130/92 130/131/92 128/129/92
f 55/50/93 30/23/93 130/131/93 129/130/93
f 117/118/94 56/51/94 55/50/94 129/130/94
f 123/124/95 117/118/95 129/130/95 127/128/95
f 125/126/96 124/125/96 123/124/96 127/128/96
f 118/119/97 122/123/97 126/127/97 128/129/97
f 59/54/98 118/119/98 128/129/98 130/131/98
f 59/54/99 130/131/99 30/23/99 29/22/99
f 101/92/100 121/122/100 75/73/100 41/34/100
f 40/33/101 61/56/101 101/92/101 41/34/101
f 102/93/102 98/87/102 96/84/102 62/57/102
f 98/87/103 27/86/103 26/132/103 96/84/103
f 26/132/104 93/133/104 97/85/104 96/84/104
f 93/133/105 94/134/105 38/31/105 97/85/105
f 94/134/106 95/135/106 39/32/106 38/31/106
f 95/135/107 90/136/107 72/70/107 39/32/107
f 90/136/108 84/109/108 73/71/108 72/70/108
f 62/57/109 61/56/109 40/33/109 102/93/109
